<svg xmlns="http://www.w3.org/2000/svg" viewBox="0 0 202.3 248" width="202" height="248"><g transform="translate(24,24) scale(0.21953)"><path d="M338.06,894.07 L324.98,877.1 L318.59,868.83 L312.19,860.56 L296.83,840.73 L281.47,820.91 L273.28,810.07 L265.09,799.22 L251.66,781.93 L238.22,764.64 L220.09,741.17 L201.97,717.7 L192.22,704.98 L182.47,692.27 L173.51,680.67 L164.55,669.08 L155.08,656.74 L145.61,644.4 L136.89,633.18 L128.17,621.96 L123.39,615.6 L118.6,609.25 L100.59,586.06 L82.59,562.87 L77.77,556.52 L72.95,550.16 L64.3,538.94 L55.65,527.72 L44.41,513.14 L33.16,498.55 L17.51,478.39 L1.87,458.22 L0.93,456.95 L0.0,455.67 L12.47,439.34 L24.94,423.01 L38.89,405.06 L52.84,387.11 L65.16,371.03 L77.49,354.95 L97.29,329.52 L117.09,304.09 L125.5,293.09 L133.91,282.09 L134.51,281.72 L135.11,281.35 L136.8,284.86 L138.48,288.38 L152.37,314.93 L166.25,341.48 L177.25,362.43 L188.26,383.37 L193.32,393.09 L198.38,402.81 L205.9,417.02 L213.42,431.24 L222.0,447.32 L230.57,463.4 L241.4,483.97 L252.23,504.53 L261.04,520.99 L269.85,537.44 L271.24,539.87 L272.62,542.3 L273.06,542.3 L273.5,542.31 L279.75,531.65 L286.0,520.99 L291.94,510.89 L297.87,500.79 L304.26,489.95 L310.64,479.1 L314.17,473.12 L317.7,467.14 L327.98,449.93 L338.27,432.73 L357.0,400.94 L375.74,369.16 L393.82,338.49 L411.89,307.83 L439.95,260.33 L468.01,212.84 L478.03,195.72 L488.05,178.6 L488.75,178.52 L489.45,178.43 L512.15,207.97 L534.86,237.52 L550.81,258.09 L566.76,278.66 L582.7,299.22 L598.64,319.79 L620.6,348.06 L642.55,376.33 L642.9,377.23 L643.24,378.13 L612.38,377.98 L581.52,377.83 L574.04,368.2 L566.56,358.57 L556.41,345.54 L546.26,332.51 L530.61,312.37 L514.96,292.23 L510.93,286.94 L506.9,281.65 L500.59,273.6 L494.27,265.55 L493.66,265.93 L493.05,266.3 L484.26,281.46 L475.48,296.61 L463.85,316.43 L452.23,336.25 L434.71,365.79 L417.2,395.33 L412.14,403.94 L407.07,412.54 L395.46,432.36 L383.84,452.18 L367.21,480.6 L350.57,509.02 L341.56,524.73 L332.55,540.44 L318.02,565.49 L303.49,590.55 L293.74,607.38 L283.99,624.21 L278.55,633.18 L273.1,642.16 L272.07,643.58 L271.03,645.01 L258.26,621.89 L245.49,598.78 L235.76,580.08 L226.04,561.38 L217.62,545.3 L209.21,529.22 L196.71,505.28 L184.2,481.35 L174.85,463.77 L165.49,446.19 L155.04,426.37 L144.58,406.55 L135.8,389.5 L127.02,372.44 L126.4,372.67 L125.78,372.9 L116.55,385.0 L107.33,397.11 L85.94,425.02 L64.56,452.93 L63.59,454.48 L62.62,456.04 L67.43,462.34 L72.23,468.63 L83.75,483.59 L95.27,498.55 L105.46,511.64 L115.65,524.73 L149.21,568.48 L182.77,612.24 L186.62,617.1 L190.47,621.96 L215.5,654.5 L240.53,687.03 L254.64,705.36 L268.74,723.68 L271.5,727.05 L274.25,730.41 L285.34,745.0 L296.44,759.58 L301.42,765.94 L306.39,772.3 L328.61,801.25 L350.83,830.2 L351.37,830.54 L351.9,830.87 L363.5,815.84 L375.09,800.81 L384.07,789.12 L393.04,777.43 L406.13,760.34 L419.22,743.24 L425.39,735.33 L431.57,727.42 L460.6,689.65 L489.64,651.88 L501.14,636.92 L512.64,621.96 L523.9,607.47 L535.15,592.97 L540.41,586.15 L545.67,579.33 L567.75,550.53 L589.83,521.74 L600.43,507.9 L611.04,494.06 L615.92,487.91 L620.79,481.76 L620.79,481.37 L620.79,480.97 L525.05,480.97 L429.32,480.97 L429.32,480.12 L429.32,479.27 L444.07,454.66 L458.83,430.05 L571.38,430.27 L683.94,430.49 L693.46,442.83 L702.97,455.17 L702.72,455.96 L702.47,456.76 L684.8,479.52 L667.13,502.29 L657.61,514.6 L648.09,526.92 L642.58,533.99 L637.08,541.07 L626.47,554.96 L615.86,568.86 L602.85,585.69 L589.85,602.51 L577.83,618.13 L565.82,633.74 L552.86,650.66 L539.91,667.59 L527.46,683.67 L515.01,699.75 L489.99,732.28 L464.96,764.82 L447.29,787.63 L429.61,810.44 L418.38,825.03 L407.15,839.61 L383.23,870.65 L359.31,901.69 L355.75,906.37 L352.19,911.04 L351.67,911.04 L351.15,911.04 L338.06,894.07 Z M172.66,272.03 L160.55,247.84 L169.07,236.69 L177.59,225.55 L200.47,196.01 L223.35,166.46 L236.83,148.89 L250.3,131.31 L259.26,119.72 L268.22,108.12 L297.32,70.35 L326.43,32.58 L338.68,16.5 L350.92,0.42 L351.49,0.21 L352.06,0.0 L357.55,7.31 L363.05,14.63 L379.48,35.95 L395.92,57.26 L424.6,94.51 L453.29,131.75 L446.81,142.75 L440.33,153.75 L436.77,159.85 L433.2,165.96 L430.05,172.01 L426.91,178.06 L426.28,178.06 L425.66,178.06 L416.0,165.16 L406.33,152.25 L393.7,135.69 L381.07,119.13 L366.57,99.95 L352.07,80.77 L351.48,80.98 L350.89,81.2 L340.07,95.41 L329.25,109.62 L310.46,133.93 L291.68,158.24 L273.55,181.66 L255.42,205.08 L236.88,229.15 L218.35,253.23 L201.86,274.73 L185.37,296.23 L185.06,296.23 L184.76,296.23 L172.66,272.03 Z" fill="#F6F6F3" fill-rule="evenodd"/></g></svg>